<svg width="20" height="20" viewBox="0 0 20 20" fill="none" xmlns="http://www.w3.org/2000/svg">
<g clip-path="url(#clip0_1054_1061)">
<path d="M18.7341 5.11563C17.6851 6.1994 15.9532 6.23125 14.865 5.18754C13.7768 4.1428 13.7448 2.41801 14.7928 1.33424C15.8418 0.250462 17.5737 0.218616 18.6619 1.26233C19.7501 2.30706 19.7821 4.03186 18.7341 5.11563Z" fill="#67B346"/>
<path d="M5.20678 8.78714C4.15775 9.87091 2.42588 9.90276 1.33766 8.85905C0.249438 7.81431 0.217461 6.08952 1.26545 5.00574C2.31448 3.92197 4.04635 3.89012 5.13457 4.93383C6.22279 5.97857 6.25477 7.70336 5.20678 8.78714Z" fill="#67B346"/>
<path d="M15.5326 11.8782C15.0468 11.682 14.5341 11.5536 14.0101 11.4879C13.4841 11.4355 12.9508 11.455 12.4237 11.5413C11.8976 11.6358 11.3881 11.8104 10.8991 12.0416L10.5433 12.2357L10.4535 12.285L10.37 12.3426L10.2019 12.4576C9.96771 12.5994 9.77172 12.7905 9.55511 12.96C9.91922 12.5501 10.337 12.1803 10.8115 11.8844C11.2901 11.5978 11.8099 11.3759 12.3566 11.229C12.9064 11.0985 13.4748 11.0431 14.0452 11.0616C14.6084 11.0934 15.1643 11.2136 15.6997 11.3964L16.6053 7.21647C15.6564 7.17948 14.7167 6.80967 13.9812 6.10393C13.2447 5.39717 12.8394 4.47673 12.7672 3.53369L11.5129 3.85215C11.5624 4.34729 11.68 4.83833 11.8553 5.30779C12.1524 6.06181 12.6259 6.74598 13.2169 7.32228C13.8131 7.89652 14.5475 8.33209 15.3521 8.61561C14.5094 8.47282 13.6965 8.103 13.0065 7.56574C12.9198 7.49999 12.8363 7.42808 12.7548 7.35515L12.5196 7.12504L12.402 7.00998L12.3432 6.95246L12.2906 6.88979L12.0792 6.63606L11.9729 6.50868C11.9409 6.46348 11.911 6.41725 11.8801 6.37102L11.6975 6.09366L11.6521 6.0238L11.614 5.95087L11.5366 5.80397C11.4861 5.70535 11.4324 5.60776 11.3839 5.50811C11.1642 5.03043 11.0188 4.51987 10.9414 3.99802L6.79485 5.04995C7.5695 6.53128 7.35391 8.40399 6.12747 9.67165C5.97997 9.82369 5.82319 9.96134 5.65918 10.0856L6.60505 10.9927C6.78144 10.854 6.94957 10.7041 7.11461 10.55C7.77579 9.89251 8.26885 9.0594 8.52259 8.14512C8.78459 7.2329 8.80419 6.24569 8.59377 5.29136C8.9455 6.20563 9.02493 7.2329 8.83616 8.21806C8.74024 8.71115 8.57519 9.19191 8.3493 9.64597C8.12443 10.1011 7.8284 10.5212 7.48594 10.8992C7.40136 10.9948 7.30646 11.08 7.21569 11.1715C7.14452 11.2382 7.07747 11.3112 7.00424 11.3749L10.2957 14.5337C10.4133 14.3663 10.5464 14.205 10.6928 14.053C11.9193 12.7853 13.7904 12.5018 15.3057 13.2178L15.5893 11.907L15.5336 11.8803L15.5326 11.8782Z" fill="#126AFF"/>
<path d="M15.552 18.7157C14.503 19.7994 12.7711 19.8313 11.6829 18.7876C10.5946 17.7428 10.5627 16.018 11.6107 14.9343C12.6597 13.8505 14.3916 13.8187 15.4798 14.8624C16.568 15.9071 16.6 17.6319 15.552 18.7157Z" fill="#67B346"/>
</g>
<defs>
<clipPath id="clip0_1054_1061">
<rect width="20" height="20" fill="white"/>
</clipPath>
</defs>
</svg>
