<svg width="15" height="18" viewBox="0 0 15 18" fill="none" xmlns="http://www.w3.org/2000/svg">
<g clip-path="url(#clip0_542_3493)">
<path d="M1.47354 10.391C1.47354 8.89686 1.46875 7.40274 1.47834 5.90862C1.47834 5.6995 1.51908 5.46769 1.61256 5.2888C1.78274 4.96125 2.15185 4.84283 2.48262 4.95118C2.80859 5.057 3.0291 5.36439 3.0315 5.74485C3.03629 6.49569 3.0315 7.24653 3.0315 7.99737C3.0315 10.2625 3.0267 12.5301 3.0315 14.7952C3.0315 15.6645 3.69303 16.3624 4.51994 16.3649C6.63396 16.37 8.75038 16.37 10.8644 16.3649C11.7033 16.3649 12.3576 15.662 12.3576 14.7776C12.3576 11.7894 12.3576 8.80112 12.3576 5.81036C12.3576 5.29384 12.674 4.92094 13.1198 4.91842C13.5776 4.9159 13.9108 5.26109 13.9108 5.78012C13.918 7.4355 13.9156 9.09087 13.9156 10.7462C13.9156 12.0514 13.906 13.3566 13.9156 14.6617C13.9324 16.5741 12.5997 18.0002 10.7757 18.0027C8.70005 18.0027 6.62677 18.0027 4.5511 18.0027C2.83016 18.0027 1.46875 16.5716 1.46875 14.7726C1.46875 13.3137 1.46875 11.8549 1.46875 10.3935L1.47354 10.391Z" fill="white"/>
<path d="M7.69671 4.09434C5.64261 4.09434 3.58851 4.09434 1.53201 4.09434C1.06462 4.09434 0.705095 3.74916 0.695507 3.29311C0.68592 2.83707 1.03107 2.46417 1.49845 2.45913C2.44521 2.44905 3.39196 2.44905 4.34112 2.46165C4.54964 2.46417 4.59998 2.39614 4.59279 2.18953C4.5784 1.75616 4.58559 1.32027 4.58799 0.884378C4.59039 0.340146 4.90438 0.0025196 5.42449 0.0025196C6.94649 0 8.46609 0 9.98809 0C10.4771 0 10.8006 0.347704 10.8054 0.861702C10.8102 1.31019 10.815 1.75868 10.803 2.20969C10.7982 2.39614 10.839 2.46165 11.0331 2.45913C11.9799 2.44905 12.9266 2.45157 13.8758 2.45913C14.4462 2.46417 14.8201 2.97816 14.662 3.51988C14.5589 3.86758 14.2641 4.09183 13.883 4.09434C13.1232 4.09938 12.361 4.09434 11.6012 4.09434C10.2997 4.09434 9.00059 4.09434 7.6991 4.09434H7.69671ZM6.15313 2.43393H9.23548V1.65538H6.15313V2.43393Z" fill="white"/>
<path d="M5.36541 10.2119C5.36541 9.26452 5.36541 8.31715 5.36541 7.3723C5.36541 6.95405 5.63626 6.62147 6.01256 6.55848C6.38647 6.498 6.7412 6.71217 6.86584 7.09263C6.90419 7.20853 6.91857 7.33955 6.91857 7.46301C6.92097 9.32247 6.92336 11.1794 6.91857 13.0389C6.91857 13.5403 6.58541 13.9006 6.14439 13.9031C5.68659 13.9031 5.36541 13.5554 5.36541 13.0313C5.36062 12.0915 5.36541 11.1517 5.36541 10.2119Z" fill="white"/>
<path d="M10.0267 10.2319C10.0267 11.1793 10.0291 12.1267 10.0267 13.0715C10.0267 13.5956 9.63122 13.9609 9.14946 13.8954C8.81869 13.8501 8.55743 13.5981 8.49512 13.2504C8.47354 13.1345 8.47115 13.0136 8.46875 12.8951C8.46875 11.071 8.46875 9.24928 8.46875 7.42509C8.46875 6.91866 8.80431 6.54827 9.25492 6.55079C9.70552 6.55079 10.0219 6.90102 10.0243 7.4125C10.0291 8.35231 10.0243 9.29212 10.0243 10.2319H10.0267Z" fill="white"/>
</g>
<defs>
<clipPath id="clip0_542_3493">
<rect width="14" height="18" fill="white" transform="translate(0.695312)"/>
</clipPath>
</defs>
</svg>
