<svg width="17" height="18" viewBox="0 0 17 18" fill="none" xmlns="http://www.w3.org/2000/svg">
<path fill-rule="evenodd" clip-rule="evenodd" d="M12.2225 0.352234H4.94895C2.12438 0.352234 0.242188 2.37129 0.242188 5.26923V12.1223C0.242188 15.023 2.11942 17.0393 4.94895 17.0393H12.2225C15.0521 17.0393 16.9293 15.023 16.9293 12.1223V5.26923C16.9293 2.36858 15.0521 0.352234 12.2225 0.352234ZM4.94689 1.51647H12.2205C14.3877 1.51647 15.763 2.99372 15.763 5.26925V12.1224C15.763 14.3979 14.3877 15.8751 12.2205 15.8751H4.94689C2.77967 15.8751 1.40435 14.3979 1.40435 12.1224V5.26925C1.40435 2.99674 2.78427 1.51647 4.94689 1.51647ZM9.19441 4.6733C9.15586 4.38917 8.91231 4.17018 8.61761 4.17018C8.29612 4.17018 8.0355 4.4308 8.0355 4.75229V12.6245L8.04082 12.7035C8.07936 12.9876 8.32291 13.2066 8.61761 13.2066C8.9391 13.2066 9.19972 12.946 9.19972 12.6245V4.75229L9.19441 4.6733ZM5.5728 7.22104C5.53425 6.93691 5.2907 6.71792 4.996 6.71792C4.67452 6.71792 4.4139 6.97854 4.4139 7.30003V12.6245L4.41921 12.7035C4.45776 12.9876 4.70131 13.2066 4.996 13.2066C5.31749 13.2066 5.57811 12.946 5.57811 12.6245V7.30003L5.5728 7.22104ZM12.1813 9.53144C12.476 9.53144 12.7196 9.75043 12.7581 10.0346L12.7634 10.1135V12.6244C12.7634 12.9459 12.5028 13.2065 12.1813 13.2065C11.8866 13.2065 11.6431 12.9875 11.6045 12.7034L11.5992 12.6244V10.1135C11.5992 9.79206 11.8598 9.53144 12.1813 9.53144Z" fill="#002B5B"/>
</svg>
