<svg width="19" height="20" viewBox="0 0 19 20" fill="none" xmlns="http://www.w3.org/2000/svg">
<path d="M18.2339 5.40024C17.185 6.48663 15.4532 6.51856 14.365 5.47232C13.2768 4.42505 13.2448 2.69609 14.2928 1.60969C15.3418 0.523295 17.0736 0.491373 18.1617 1.53761C19.2499 2.58487 19.2819 4.31384 18.2339 5.40024Z" fill="#002B5B"/>
<path d="M4.7066 9.08014C3.65762 10.1665 1.92581 10.1985 0.837628 9.15222C-0.250553 8.10496 -0.282529 6.37599 0.765426 5.28959C1.81441 4.2032 3.54622 4.17127 4.6344 5.21751C5.72258 6.26478 5.75456 7.99374 4.7066 9.08014Z" fill="#002B5B"/>
<path d="M15.0332 12.1786C14.5474 11.9819 14.0348 11.8532 13.5108 11.7873C12.9847 11.7348 12.4515 11.7543 11.9244 11.8408C11.3984 11.9356 10.8888 12.1106 10.3999 12.3423L10.0441 12.5369L9.95434 12.5864L9.87079 12.644L9.70266 12.7594C9.46853 12.9015 9.27255 13.093 9.05594 13.2629C9.42005 12.852 9.83779 12.4813 10.3123 12.1848C10.7908 11.8975 11.3107 11.675 11.8574 11.5278C12.4071 11.397 12.9755 11.3414 13.5459 11.3599C14.109 11.3918 14.665 11.5123 15.2003 11.6956L16.1059 7.50553C15.157 7.46846 14.2173 7.09775 13.4819 6.3903C12.7454 5.68183 12.3401 4.75916 12.2679 3.81384L11.0136 4.13307C11.0632 4.62941 11.1807 5.12164 11.3561 5.59224C11.6531 6.34808 12.1266 7.0339 12.7176 7.6116C13.3138 8.18723 14.0482 8.62385 14.8527 8.90806C14.01 8.76493 13.1972 8.39421 12.5072 7.85565C12.4205 7.78974 12.337 7.71766 12.2555 7.64455L12.0203 7.41388L11.9028 7.29855L11.844 7.24088L11.7914 7.17807L11.5799 6.92372L11.4737 6.79603C11.4417 6.75072 11.4118 6.70438 11.3808 6.65804L11.1983 6.38L11.1529 6.30998L11.1147 6.23687L11.0374 6.08961C10.9868 5.99075 10.9332 5.89293 10.8847 5.79304C10.665 5.3142 10.5196 4.80241 10.4422 4.27929L6.29578 5.33377C7.0704 6.81868 6.85483 8.69593 5.62843 9.96666C5.48094 10.1191 5.32416 10.257 5.16016 10.3816L6.106 11.2909C6.28237 11.1519 6.4505 11.0016 6.61553 10.8471C7.27669 10.1881 7.76973 9.35292 8.02347 8.43643C8.28545 7.52201 8.30505 6.53241 8.09464 5.57576C8.44636 6.49225 8.52578 7.52201 8.33702 8.50955C8.2411 9.00383 8.07606 9.48576 7.85018 9.94091C7.62532 10.3971 7.32929 10.8183 6.98685 11.1972C6.90227 11.293 6.80738 11.3785 6.71661 11.4701C6.64544 11.537 6.5784 11.6102 6.50517 11.674L9.79653 14.8405C9.91412 14.6727 10.0472 14.511 10.1936 14.3586C11.42 13.0879 13.2911 12.8036 14.8063 13.5214L15.0899 12.2074L15.0342 12.1806L15.0332 12.1786Z" fill="#002B5B"/>
<path d="M15.0503 19.0328C14.0014 20.1192 12.2696 20.1511 11.1814 19.1049C10.0932 18.0576 10.0612 16.3287 11.1092 15.2423C12.1582 14.1559 13.89 14.1239 14.9781 15.1702C16.0663 16.2174 16.0983 17.9464 15.0503 19.0328Z" fill="#002B5B"/>
</svg>
