<svg width="22" height="22" viewBox="0 0 22 22" fill="none" xmlns="http://www.w3.org/2000/svg">
<mask id="mask0_540_2417" style="mask-type:alpha" maskUnits="userSpaceOnUse" x="0" y="0" width="22" height="22">
<rect width="22" height="22" fill="#D9D9D9"/>
</mask>
<g mask="url(#mask0_540_2417)">
<path d="M10.082 15.5833H11.9154V10.0833H10.082V15.5833ZM10.9987 8.24992C11.2584 8.24992 11.4761 8.16207 11.6518 7.98638C11.8275 7.81068 11.9154 7.59297 11.9154 7.33325C11.9154 7.07353 11.8275 6.85582 11.6518 6.68013C11.4761 6.50443 11.2584 6.41659 10.9987 6.41659C10.739 6.41659 10.5213 6.50443 10.3456 6.68013C10.1699 6.85582 10.082 7.07353 10.082 7.33325C10.082 7.59297 10.1699 7.81068 10.3456 7.98638C10.5213 8.16207 10.739 8.24992 10.9987 8.24992ZM10.9987 20.1666C9.73064 20.1666 8.53898 19.926 7.4237 19.4447C6.30842 18.9635 5.33828 18.3103 4.51328 17.4853C3.68828 16.6603 3.03516 15.6902 2.55391 14.5749C2.07266 13.4596 1.83203 12.268 1.83203 10.9999C1.83203 9.73186 2.07266 8.5402 2.55391 7.42492C3.03516 6.30964 3.68828 5.3395 4.51328 4.5145C5.33828 3.6895 6.30842 3.03638 7.4237 2.55513C8.53898 2.07388 9.73064 1.83325 10.9987 1.83325C12.2668 1.83325 13.4584 2.07388 14.5737 2.55513C15.689 3.03638 16.6591 3.6895 17.4841 4.5145C18.3091 5.3395 18.9622 6.30964 19.4435 7.42492C19.9247 8.5402 20.1654 9.73186 20.1654 10.9999C20.1654 12.268 19.9247 13.4596 19.4435 14.5749C18.9622 15.6902 18.3091 16.6603 17.4841 17.4853C16.6591 18.3103 15.689 18.9635 14.5737 19.4447C13.4584 19.926 12.2668 20.1666 10.9987 20.1666ZM10.9987 18.3333C13.0459 18.3333 14.7799 17.6228 16.2008 16.202C17.6216 14.7812 18.332 13.0471 18.332 10.9999C18.332 8.9527 17.6216 7.21867 16.2008 5.79784C14.7799 4.377 13.0459 3.66659 10.9987 3.66659C8.95148 3.66659 7.21745 4.377 5.79661 5.79784C4.37578 7.21867 3.66536 8.9527 3.66536 10.9999C3.66536 13.0471 4.37578 14.7812 5.79661 16.202C7.21745 17.6228 8.95148 18.3333 10.9987 18.3333Z" fill="#FF3030"/>
</g>
</svg>
