<svg width="24" height="25" viewBox="0 0 24 25" fill="none" xmlns="http://www.w3.org/2000/svg">
<path d="M4.8759 11.2514C5.62149 11.4519 6.36644 11.653 7.11203 11.8528C8.67364 12.2703 10.2346 12.6877 11.7975 13.0998C11.906 13.1289 12.0333 13.1421 12.1399 13.1137C14.4426 12.5064 16.7427 11.8918 19.0434 11.2772C19.0732 11.2692 19.0997 11.2475 19.172 11.2079C18.4374 11.0187 17.7422 10.8399 17.047 10.6612C16.4526 10.5082 15.8576 10.3553 15.2638 10.1996C14.9052 10.1053 14.7514 9.89299 14.8206 9.59558C14.8878 9.30345 15.1255 9.18079 15.4841 9.27246C17.363 9.75187 19.2431 10.228 21.1168 10.7272C21.3015 10.7766 21.5038 10.9369 21.6046 11.105C22.3741 12.3896 23.1209 13.6881 23.8724 14.9839C24.1172 15.4059 24.0106 15.6947 23.5454 15.8319C23.0079 15.9902 22.4677 16.1425 21.9224 16.2678C21.6737 16.3252 21.5987 16.4346 21.6007 16.6905C21.611 18.3945 21.6065 20.0985 21.6059 21.8025C21.6059 22.3769 21.5406 22.4665 21.0095 22.6083C18.1053 23.3838 15.2011 24.1606 12.2937 24.9263C12.1063 24.9757 11.8841 24.975 11.6967 24.9256C8.76991 24.1521 5.84504 23.3673 2.92082 22.5833C2.47372 22.4632 2.40136 22.367 2.40072 21.8922C2.39878 20.1664 2.39232 18.44 2.40653 16.7142C2.40912 16.4241 2.31414 16.3153 2.04666 16.2553C1.51104 16.1353 0.981248 15.9856 0.454036 15.8319C-0.011152 15.6967 -0.117757 15.4092 0.12905 14.9845C0.886918 13.6802 1.64156 12.3738 2.41493 11.0787C2.50474 10.9277 2.68629 10.7813 2.85169 10.7371C4.68401 10.2491 6.5215 9.78154 8.3577 9.30873C8.43071 9.2896 8.50436 9.27246 8.57802 9.25729C8.88621 9.19596 9.11686 9.33049 9.17372 9.6035C9.23122 9.88112 9.08973 10.1066 8.78606 10.1871C7.8376 10.4364 6.88784 10.679 5.93808 10.9244C5.58467 11.016 5.2319 11.1083 4.87849 11.2C4.87849 11.2178 4.87784 11.2356 4.87719 11.2528L4.8759 11.2514ZM3.355 16.6193C3.34724 16.7268 3.33949 16.7808 3.33949 16.8343C3.3382 18.3622 3.34466 19.8908 3.33174 21.4187C3.3298 21.6693 3.44287 21.7266 3.64186 21.7794C6.20298 22.4606 8.76216 23.1497 11.3226 23.8349C11.3808 23.8507 11.4447 23.8441 11.5093 23.8487V15.5536C11.0047 16.3212 10.5512 17.104 10.0963 17.8867C9.87602 18.2659 9.75068 18.3226 9.32555 18.2092C8.01398 17.859 6.70435 17.5036 5.39278 17.1528C4.72795 16.9747 4.06118 16.8039 3.35435 16.6193H3.355ZM12.4785 23.8606C12.5689 23.8487 12.6432 23.8474 12.713 23.8289C15.2619 23.1458 17.8094 22.4573 20.3602 21.782C20.5928 21.7207 20.6671 21.6264 20.6658 21.3844C20.6554 19.8894 20.6606 18.3952 20.6587 16.9002C20.6587 16.8184 20.6432 16.736 20.6322 16.6331C20.5023 16.6641 20.3983 16.6872 20.2956 16.7142C18.4536 17.2049 16.6122 17.6988 14.7689 18.1861C14.2184 18.3318 14.137 18.289 13.8527 17.799C13.4689 17.1369 13.0858 16.4749 12.7001 15.8141C12.6452 15.7198 12.5799 15.6321 12.4778 15.4791V23.8599L12.4785 23.8606ZM11.2509 14.0026C11.1895 13.9664 11.1637 13.9433 11.134 13.9354C8.5147 13.2298 5.89415 12.5275 3.27617 11.8159C3.08041 11.7625 3.0313 11.8766 2.95959 12.0006C2.42268 12.9264 1.88384 13.8516 1.34758 14.7781C1.30559 14.85 1.27522 14.9291 1.23839 15.0069C1.28168 15.0366 1.30559 15.063 1.33402 15.0703C3.95393 15.7745 6.57384 16.4795 9.19633 17.1726C9.2758 17.1937 9.42957 17.1264 9.47286 17.0532C10.0686 16.0489 10.6513 15.0366 11.2509 14.002V14.0026ZM12.7292 13.9664C13.3287 15.005 13.9018 15.9849 14.4601 16.9741C14.5796 17.1857 14.6978 17.2167 14.9259 17.1541C17.1497 16.5494 19.3781 15.9605 21.6046 15.365C21.9942 15.2608 22.3818 15.1474 22.7998 15.0294C22.1524 13.9189 21.5322 12.8545 20.9048 11.7777C18.1828 12.5064 15.4815 13.2291 12.7292 13.9657V13.9664Z" fill="#424242"/>
<path d="M11.9694 12.1716C11.7756 12.1716 11.5817 12.1762 11.3886 12.171C10.7173 12.1512 10.2004 11.6678 10.1474 10.982C10.1196 10.6213 10.1371 10.2573 10.1358 9.89458C10.1358 9.85106 10.1319 9.79698 10.1539 9.76599C10.4944 9.27734 10.1287 9.02082 9.83665 8.73396C8.93018 7.8424 8.59485 6.75498 8.91596 5.51853C9.23965 4.27219 10.0647 3.47295 11.2878 3.15114C12.6478 2.79307 14.1564 3.50658 14.8193 4.7793C15.4984 6.08301 15.238 7.70062 14.1868 8.71484C14.0854 8.8131 13.9697 8.89883 13.8812 9.00763C13.7287 9.19425 13.7035 9.35582 13.7714 9.64136C13.9342 10.3259 14.0259 11.0631 13.5678 11.6955C13.2739 12.1011 12.8339 12.2053 12.3571 12.1769C12.2285 12.169 12.0986 12.1756 11.97 12.1756C11.97 12.1743 11.97 12.1729 11.97 12.171L11.9694 12.1716ZM12.4656 8.06727C12.4656 8.44051 12.4617 8.81442 12.4695 9.18766C12.4708 9.24833 12.5276 9.30834 12.5586 9.36835C12.6097 9.32548 12.6911 9.29185 12.7059 9.23844C12.8494 8.72012 13.1757 8.34292 13.5536 7.98352C14.2824 7.29111 14.4575 6.21688 14.0246 5.32202C13.5782 4.3988 12.64 3.89433 11.6489 4.06513C10.7509 4.22009 10.1429 4.76281 9.85991 5.63262C9.56916 6.52484 9.78496 7.33002 10.444 7.98682C10.7871 8.32907 11.1056 8.67462 11.2574 9.15271C11.2826 9.23184 11.3627 9.29251 11.417 9.36175C11.4564 9.27471 11.5288 9.18766 11.5301 9.09995C11.5397 8.4082 11.5313 7.71579 11.5378 7.02404C11.541 6.67783 11.7271 6.47406 12.0108 6.48198C12.2782 6.48923 12.4566 6.69102 12.4637 7.01348C12.4708 7.36497 12.4656 7.71645 12.4662 8.06793L12.4656 8.06727ZM12.9153 10.3634H11.083C11.083 10.4914 11.083 10.589 11.083 10.6866C11.0836 11.1317 11.1514 11.2016 11.5869 11.2042C11.866 11.2062 12.1451 11.2082 12.4243 11.2069C12.8378 11.2049 12.9121 11.1284 12.9153 10.7077C12.9159 10.6002 12.9153 10.4927 12.9153 10.3634Z" fill="#424242"/>
<path d="M16.2806 1.81739C16.238 1.96114 16.2354 2.04951 16.1921 2.10424C15.9227 2.44451 15.6591 2.79204 15.3619 3.10659C15.1946 3.28332 14.9613 3.2642 14.7772 3.1C14.595 2.93843 14.533 2.71093 14.6783 2.5098C14.9258 2.16689 15.1907 1.82992 15.4911 1.53646C15.5913 1.43887 15.8426 1.42502 15.988 1.47711C16.1185 1.52393 16.1986 1.71517 16.2813 1.81739H16.2806Z" fill="#424242"/>
<path d="M9.41476 2.80166C9.33659 2.90322 9.25906 3.09643 9.1279 3.14721C8.98511 3.2026 8.73249 3.19007 8.63364 3.09379C8.33256 2.80034 8.07024 2.46271 7.81891 2.12178C7.68129 1.93582 7.70326 1.68325 7.89192 1.56323C8.03859 1.47025 8.34613 1.40629 8.43335 1.49003C8.77319 1.81712 9.05489 2.20685 9.35339 2.57679C9.3844 2.61504 9.38311 2.68032 9.41541 2.801L9.41476 2.80166Z" fill="#424242"/>
<path d="M12.4632 1.0674C12.4632 1.25336 12.4716 1.43932 12.4613 1.62462C12.4445 1.91939 12.2565 2.10931 11.9922 2.09612C11.7144 2.08227 11.5522 1.92005 11.5419 1.64045C11.5277 1.25863 11.5277 0.874839 11.5419 0.493023C11.5522 0.212101 11.7164 0.0518574 11.9935 0.0386686C12.2584 0.0261392 12.4471 0.216717 12.4619 0.510168C12.4716 0.695471 12.4639 0.881433 12.4639 1.0674H12.4632Z" fill="#424242"/>
</svg>
