<svg width="21" height="21" viewBox="0 0 21 21" fill="none" xmlns="http://www.w3.org/2000/svg">
<path fill-rule="evenodd" clip-rule="evenodd" d="M10.8278 3.04041C8.67054 3.04041 6.93778 4.77317 6.93778 6.93039C6.93778 9.08825 8.6704 10.8212 10.8278 10.8212C12.9851 10.8212 14.7178 9.08825 14.7178 6.93039C14.7178 4.77317 12.985 3.04041 10.8278 3.04041ZM10.8278 4.30661C12.2857 4.30661 13.4516 5.47247 13.4516 6.93039C13.4516 8.389 12.2858 9.55495 10.8278 9.55495C9.36975 9.55495 8.20398 8.389 8.20398 6.93039C8.20398 5.47247 9.36984 4.30661 10.8278 4.30661ZM6.06168 3.83548C6.41133 3.83548 6.69478 4.11893 6.69478 4.46858C6.69478 4.81824 6.41133 5.10169 6.06168 5.10169C5.05853 5.10169 4.24496 5.91491 4.24496 6.91763C4.24496 7.92036 5.05853 8.73358 6.06168 8.73358C6.41133 8.73358 6.69478 9.01703 6.69478 9.36668C6.69478 9.71634 6.41133 9.99978 6.06168 9.99978C4.35935 9.99978 2.97875 8.61979 2.97875 6.91763C2.97875 5.21548 4.35935 3.83548 6.06168 3.83548ZM18.687 6.91763C18.687 5.21548 17.3064 3.83548 15.604 3.83548C15.2544 3.83548 14.9709 4.11893 14.9709 4.46858C14.9709 4.81824 15.2544 5.10169 15.604 5.10169C16.6072 5.10169 17.4208 5.91491 17.4208 6.91763C17.4208 7.92036 16.6072 8.73358 15.604 8.73358C15.2544 8.73358 14.9709 9.01703 14.9709 9.36668C14.9709 9.71634 15.2544 9.99978 15.604 9.99978C17.3064 9.99978 18.687 8.61979 18.687 6.91763ZM18.0529 11.581C17.6476 11.4895 17.2144 11.427 16.7739 11.3966C16.4251 11.3725 16.1228 11.6358 16.0988 11.9846C16.0747 12.3335 16.338 12.6358 16.6868 12.6598C17.0637 12.6858 17.4331 12.7391 17.7923 12.82C18.3508 12.9296 18.715 13.1112 18.8054 13.3006C18.8733 13.4436 18.8733 13.6117 18.8047 13.7564C18.7155 13.9438 18.3544 14.1246 17.8038 14.2378C17.4613 14.3083 17.2407 14.643 17.3112 14.9855C17.3816 15.328 17.7163 15.5485 18.0588 15.4781C18.969 15.2909 19.6357 14.9572 19.9485 14.2996C20.1804 13.8107 20.1804 13.2437 19.9485 12.7561C19.6335 12.096 18.9553 11.7577 18.0529 11.581ZM5.56649 11.9846C5.54244 11.6358 5.24016 11.3725 4.89133 11.3966C4.45087 11.427 4.01769 11.4895 3.59497 11.5847L3.4207 11.6215C2.62078 11.8043 2.01051 12.1402 1.71758 12.756C1.48472 13.2432 1.48472 13.8112 1.71783 14.3001C2.02925 14.957 2.69593 15.2909 3.60645 15.4781C3.94894 15.5485 4.28367 15.328 4.3541 14.9855C4.42452 14.643 4.20397 14.3083 3.86149 14.2378C3.31104 14.1246 2.95027 13.944 2.86137 13.7565C2.7921 13.6112 2.7921 13.4441 2.86051 13.301C2.95083 13.1111 3.31462 12.9295 3.85561 12.8236L4.13689 12.766C4.4173 12.7142 4.69576 12.6793 4.97845 12.6598C5.32728 12.6358 5.59055 12.3335 5.56649 11.9846ZM5.11231 14.6446C5.11231 12.6306 7.19559 11.9223 10.8277 11.9223L11.085 11.9235C14.5653 11.9562 16.543 12.6661 16.543 14.6299C16.543 16.5475 14.6525 17.2818 11.3358 17.3474L10.8277 17.3522C7.18726 17.3522 5.11231 16.6564 5.11231 14.6446ZM15.2768 14.6299C15.2768 13.6925 13.7738 13.1885 10.8277 13.1885C7.88442 13.1885 6.37851 13.7005 6.37851 14.6446C6.37851 15.5822 7.88106 16.086 10.8277 16.086C13.77 16.086 15.2768 15.5736 15.2768 14.6299Z" fill="#002B5B"/>
</svg>
